G04 #@! TF.GenerationSoftware,KiCad,Pcbnew,5.0.2+dfsg1-1~bpo9+1*
G04 #@! TF.CreationDate,2019-03-26T11:30:45+01:00*
G04 #@! TF.ProjectId,DhMonitor,44684d6f-6e69-4746-9f72-2e6b69636164,0.1*
G04 #@! TF.SameCoordinates,Original*
G04 #@! TF.FileFunction,Copper,L2,Bot*
G04 #@! TF.FilePolarity,Positive*
%FSLAX46Y46*%
G04 Gerber Fmt 4.6, Leading zero omitted, Abs format (unit mm)*
G04 Created by KiCad (PCBNEW 5.0.2+dfsg1-1~bpo9+1) date Tue 26 Mar 2019 11:30:45 CET*
%MOMM*%
%LPD*%
G01*
G04 APERTURE LIST*
G04 #@! TA.AperFunction,ComponentPad*
%ADD10O,2.032000X1.727200*%
G04 #@! TD*
G04 #@! TA.AperFunction,ComponentPad*
%ADD11O,1.727200X2.032000*%
G04 #@! TD*
G04 #@! TA.AperFunction,ComponentPad*
%ADD12C,1.778000*%
G04 #@! TD*
G04 #@! TA.AperFunction,ComponentPad*
%ADD13R,1.700000X1.700000*%
G04 #@! TD*
G04 #@! TA.AperFunction,ComponentPad*
%ADD14O,1.700000X1.700000*%
G04 #@! TD*
G04 #@! TA.AperFunction,ComponentPad*
%ADD15C,1.600000*%
G04 #@! TD*
G04 #@! TA.AperFunction,Conductor*
%ADD16C,0.250000*%
G04 #@! TD*
G04 APERTURE END LIST*
D10*
G04 #@! TO.P,P1,1*
G04 #@! TO.N,Net-(P1-Pad1)*
X138430000Y-85090000D03*
G04 #@! TO.P,P1,2*
G04 #@! TO.N,Net-(P1-Pad2)*
X138430000Y-87630000D03*
G04 #@! TO.P,P1,3*
G04 #@! TO.N,/Reset*
X138430000Y-90170000D03*
G04 #@! TO.P,P1,4*
G04 #@! TO.N,Net-(P1-Pad4)*
X138430000Y-92710000D03*
G04 #@! TO.P,P1,5*
G04 #@! TO.N,/2*
X138430000Y-95250000D03*
G04 #@! TO.P,P1,6*
G04 #@! TO.N,/3(\002A\002A)*
X138430000Y-97790000D03*
G04 #@! TO.P,P1,7*
G04 #@! TO.N,/4*
X138430000Y-100330000D03*
G04 #@! TO.P,P1,8*
G04 #@! TO.N,/5(\002A\002A)*
X138430000Y-102870000D03*
G04 #@! TO.P,P1,9*
G04 #@! TO.N,/6(\002A\002A)*
X138430000Y-105410000D03*
G04 #@! TO.P,P1,10*
G04 #@! TO.N,/7*
X138430000Y-107950000D03*
G04 #@! TO.P,P1,11*
G04 #@! TO.N,/8*
X138430000Y-110490000D03*
G04 #@! TO.P,P1,12*
G04 #@! TO.N,/9(\002A\002A)*
X138430000Y-113030000D03*
G04 #@! TD*
D11*
G04 #@! TO.P,P2,1*
G04 #@! TO.N,/DTR*
X139700000Y-82550000D03*
G04 #@! TO.P,P2,2*
G04 #@! TO.N,/1(Tx)*
X142240000Y-82550000D03*
G04 #@! TO.P,P2,3*
G04 #@! TO.N,/0(Rx)*
X144780000Y-82550000D03*
G04 #@! TO.P,P2,4*
G04 #@! TO.N,Net-(J2-Pad2)*
X147320000Y-82550000D03*
G04 #@! TO.P,P2,5*
G04 #@! TO.N,Net-(J1-Pad1)*
X149860000Y-82550000D03*
G04 #@! TO.P,P2,6*
X152400000Y-82550000D03*
G04 #@! TD*
D12*
G04 #@! TO.P,P3,1*
G04 #@! TO.N,/A5*
X151130000Y-93980000D03*
G04 #@! TO.P,P3,2*
G04 #@! TO.N,/A4*
X151130000Y-96520000D03*
G04 #@! TD*
D10*
G04 #@! TO.P,P4,1*
G04 #@! TO.N,/RAW*
X153670000Y-85090000D03*
G04 #@! TO.P,P4,2*
G04 #@! TO.N,Net-(J1-Pad1)*
X153670000Y-87630000D03*
G04 #@! TO.P,P4,3*
G04 #@! TO.N,Net-(P4-Pad3)*
X153670000Y-90170000D03*
G04 #@! TO.P,P4,4*
G04 #@! TO.N,Net-(J2-Pad2)*
X153670000Y-92710000D03*
G04 #@! TO.P,P4,5*
G04 #@! TO.N,Net-(P4-Pad5)*
X153670000Y-95250000D03*
G04 #@! TO.P,P4,6*
G04 #@! TO.N,Net-(P4-Pad6)*
X153670000Y-97790000D03*
G04 #@! TO.P,P4,7*
G04 #@! TO.N,Net-(P4-Pad7)*
X153670000Y-100330000D03*
G04 #@! TO.P,P4,8*
G04 #@! TO.N,Net-(P4-Pad8)*
X153670000Y-102870000D03*
G04 #@! TO.P,P4,9*
G04 #@! TO.N,/13(SCK)*
X153670000Y-105410000D03*
G04 #@! TO.P,P4,10*
G04 #@! TO.N,/12(MISO)*
X153670000Y-107950000D03*
G04 #@! TO.P,P4,11*
G04 #@! TO.N,/10(\002A\002A/SS)*
X153670000Y-110490000D03*
G04 #@! TO.P,P4,12*
G04 #@! TO.N,Net-(J4-Pad4)*
X153670000Y-113030000D03*
G04 #@! TD*
D12*
G04 #@! TO.P,P5,1*
G04 #@! TO.N,/A7*
X151130000Y-104140000D03*
G04 #@! TO.P,P5,2*
G04 #@! TO.N,/A6*
X151130000Y-106680000D03*
G04 #@! TD*
D13*
G04 #@! TO.P,J1,1*
G04 #@! TO.N,Net-(J1-Pad1)*
X144620001Y-66104998D03*
D14*
G04 #@! TO.P,J1,2*
G04 #@! TO.N,/RAW*
X147160001Y-66104998D03*
G04 #@! TD*
D13*
G04 #@! TO.P,J2,1*
G04 #@! TO.N,Net-(J1-Pad1)*
X124460000Y-111760000D03*
D14*
G04 #@! TO.P,J2,2*
G04 #@! TO.N,Net-(J2-Pad2)*
X124460000Y-109220000D03*
G04 #@! TO.P,J2,3*
G04 #@! TO.N,/8*
X124460000Y-106680000D03*
G04 #@! TD*
D13*
G04 #@! TO.P,J3,1*
G04 #@! TO.N,Net-(J1-Pad1)*
X151130000Y-124460000D03*
D14*
G04 #@! TO.P,J3,2*
G04 #@! TO.N,Net-(J2-Pad2)*
X148590000Y-124460000D03*
G04 #@! TO.P,J3,3*
G04 #@! TO.N,/A4*
X146050000Y-124460000D03*
G04 #@! TO.P,J3,4*
G04 #@! TO.N,/A5*
X143510000Y-124460000D03*
G04 #@! TO.P,J3,5*
G04 #@! TO.N,/2*
X140970000Y-124460000D03*
G04 #@! TO.P,J3,6*
G04 #@! TO.N,Net-(J3-Pad6)*
X138430000Y-124460000D03*
G04 #@! TD*
D13*
G04 #@! TO.P,J4,1*
G04 #@! TO.N,Net-(J1-Pad1)*
X169165002Y-93820001D03*
D14*
G04 #@! TO.P,J4,2*
G04 #@! TO.N,Net-(J2-Pad2)*
X169165002Y-96360001D03*
G04 #@! TO.P,J4,3*
G04 #@! TO.N,Net-(J4-Pad3)*
X169165002Y-98900001D03*
G04 #@! TO.P,J4,4*
G04 #@! TO.N,Net-(J4-Pad4)*
X169165002Y-101440001D03*
G04 #@! TO.P,J4,5*
G04 #@! TO.N,/10(\002A\002A/SS)*
X169165002Y-103980001D03*
G04 #@! TO.P,J4,6*
G04 #@! TO.N,/13(SCK)*
X169165002Y-106520001D03*
G04 #@! TO.P,J4,7*
G04 #@! TO.N,/12(MISO)*
X169165002Y-109060001D03*
G04 #@! TO.P,J4,8*
G04 #@! TO.N,Net-(J4-Pad8)*
X169165002Y-111600001D03*
G04 #@! TD*
D15*
G04 #@! TO.P,R1,1*
G04 #@! TO.N,Net-(J2-Pad2)*
X130395002Y-109460001D03*
G04 #@! TO.P,R1,2*
G04 #@! TO.N,/8*
X130395002Y-106920001D03*
G04 #@! TD*
D16*
G04 #@! TO.N,/8*
X130395002Y-106920001D02*
X133590001Y-106920001D01*
X137160000Y-110490000D02*
X138430000Y-110490000D01*
X133590001Y-106920001D02*
X137160000Y-110490000D01*
X130395002Y-106920001D02*
X124700001Y-106920001D01*
X124700001Y-106920001D02*
X124460000Y-106680000D01*
G04 #@! TO.N,/A5*
X151130000Y-93980000D02*
X148590000Y-93980000D01*
X143510000Y-99060000D02*
X143510000Y-124460000D01*
X148590000Y-93980000D02*
X143510000Y-99060000D01*
G04 #@! TO.N,/A4*
X151130000Y-96520000D02*
X151130000Y-97790000D01*
X146050000Y-102870000D02*
X146050000Y-124460000D01*
X151130000Y-97790000D02*
X146050000Y-102870000D01*
G04 #@! TO.N,/13(SCK)*
X169165002Y-106520001D02*
X162400001Y-106520001D01*
X161290000Y-105410000D02*
X153670000Y-105410000D01*
X162400001Y-106520001D02*
X161290000Y-105410000D01*
G04 #@! TO.N,/12(MISO)*
X169165002Y-109060001D02*
X162400001Y-109060001D01*
X161290000Y-107950000D02*
X153670000Y-107950000D01*
X162400001Y-109060001D02*
X161290000Y-107950000D01*
G04 #@! TO.N,/10(\002A\002A/SS)*
X169165002Y-103980001D02*
X172560001Y-103980001D01*
X161290000Y-110490000D02*
X153670000Y-110490000D01*
X163830000Y-113030000D02*
X161290000Y-110490000D01*
X166370000Y-115570000D02*
X163830000Y-113030000D01*
X171450000Y-115570000D02*
X166370000Y-115570000D01*
X172720000Y-114300000D02*
X171450000Y-115570000D01*
X172720000Y-104140000D02*
X172720000Y-114300000D01*
X172560001Y-103980001D02*
X172720000Y-104140000D01*
G04 #@! TO.N,Net-(J2-Pad2)*
X169165002Y-96360001D02*
X164940001Y-96360001D01*
X164940001Y-96360001D02*
X161290000Y-92710000D01*
X161290000Y-92710000D02*
X153670000Y-92710000D01*
X130395002Y-109460001D02*
X124700001Y-109460001D01*
X124700001Y-109460001D02*
X124460000Y-109220000D01*
G04 #@! TO.N,Net-(J1-Pad1)*
X153670000Y-87630000D02*
X161290000Y-87630000D01*
X161290000Y-87630000D02*
X162560000Y-87630000D01*
X162560000Y-87630000D02*
X162975001Y-87630000D01*
X162975001Y-87630000D02*
X169165002Y-93820001D01*
X124460000Y-111760000D02*
X120650000Y-111760000D01*
X120650000Y-82550000D02*
X120809999Y-82390001D01*
X120650000Y-111760000D02*
X120650000Y-82550000D01*
X149860000Y-78740000D02*
X149860000Y-82550000D01*
X151130000Y-124460000D02*
X151130000Y-128270000D01*
X124460000Y-118110000D02*
X124460000Y-111760000D01*
X134620000Y-128270000D02*
X124460000Y-118110000D01*
X151130000Y-128270000D02*
X134620000Y-128270000D01*
X120650000Y-82550000D02*
X124460000Y-78740000D01*
X124460000Y-78740000D02*
X149860000Y-78740000D01*
X144620001Y-66104998D02*
X144620001Y-73500001D01*
X144620001Y-73500001D02*
X149860000Y-78740000D01*
X162560000Y-87630000D02*
X162560000Y-85090000D01*
X156210000Y-78740000D02*
X152400000Y-78740000D01*
X152400000Y-78740000D02*
X149860000Y-78740000D01*
X162560000Y-85090000D02*
X156210000Y-78740000D01*
X152400000Y-82550000D02*
X152400000Y-78740000D01*
G04 #@! TO.N,Net-(J4-Pad4)*
X169165002Y-101440001D02*
X173830001Y-101440001D01*
X161290000Y-113030000D02*
X153670000Y-113030000D01*
X165100000Y-116840000D02*
X161290000Y-113030000D01*
X171450000Y-116840000D02*
X165100000Y-116840000D01*
X173990000Y-114300000D02*
X171450000Y-116840000D01*
X173990000Y-101600000D02*
X173990000Y-114300000D01*
X173830001Y-101440001D02*
X173990000Y-101600000D01*
G04 #@! TD*
M02*
