M48
;DRILL file {KiCad 5.0.2+dfsg1-1~bpo9+1} date Mon 25 Mar 2019 15:14:06 CET
;FORMAT={-:-/ absolute / inch / decimal}
FMAT,2
INCH,TZ
T1C0.0315
T2C0.0394
T3C0.0400
%
G90
G05
T1
X5.1337Y-4.2094
X5.1337Y-4.3094
T2
X6.66Y-3.6937
X6.66Y-3.7937
X6.66Y-3.8937
X6.66Y-3.9937
X6.66Y-4.0937
X6.66Y-4.1937
X6.66Y-4.2937
X6.66Y-4.3937
X5.6937Y-2.6026
X5.7937Y-2.6026
X4.9Y-4.2
X4.9Y-4.3
X4.9Y-4.4
X5.45Y-4.9
X5.55Y-4.9
X5.65Y-4.9
X5.75Y-4.9
X5.85Y-4.9
X5.95Y-4.9
T3
X5.5Y-3.25
X5.6Y-3.25
X5.7Y-3.25
X5.8Y-3.25
X5.9Y-3.25
X6.Y-3.25
X5.45Y-3.35
X5.45Y-3.45
X5.45Y-3.55
X5.45Y-3.65
X5.45Y-3.75
X5.45Y-3.85
X5.45Y-3.95
X5.45Y-4.05
X5.45Y-4.15
X5.45Y-4.25
X5.45Y-4.35
X5.45Y-4.45
X5.95Y-4.1
X5.95Y-4.2
X5.95Y-3.7
X5.95Y-3.8
X6.05Y-3.35
X6.05Y-3.45
X6.05Y-3.55
X6.05Y-3.65
X6.05Y-3.75
X6.05Y-3.85
X6.05Y-3.95
X6.05Y-4.05
X6.05Y-4.15
X6.05Y-4.25
X6.05Y-4.35
X6.05Y-4.45
T0
M30
