G04 #@! TF.GenerationSoftware,KiCad,Pcbnew,5.0.2+dfsg1-1~bpo9+1*
G04 #@! TF.CreationDate,2019-03-25T16:16:38+01:00*
G04 #@! TF.ProjectId,ProMini,50726f4d-696e-4692-9e6b-696361645f70,0.1*
G04 #@! TF.SameCoordinates,Original*
G04 #@! TF.FileFunction,Soldermask,Top*
G04 #@! TF.FilePolarity,Negative*
%FSLAX46Y46*%
G04 Gerber Fmt 4.6, Leading zero omitted, Abs format (unit mm)*
G04 Created by KiCad (PCBNEW 5.0.2+dfsg1-1~bpo9+1) date Mon 25 Mar 2019 16:16:38 CET*
%MOMM*%
%LPD*%
G01*
G04 APERTURE LIST*
%ADD10C,0.100000*%
G04 APERTURE END LIST*
D10*
G36*
X151980000Y-125310000D02*
X150280000Y-125310000D01*
X150280000Y-123610000D01*
X151980000Y-123610000D01*
X151980000Y-125310000D01*
X151980000Y-125310000D01*
G37*
G36*
X148756630Y-123622299D02*
X148916855Y-123670903D01*
X149064520Y-123749831D01*
X149193949Y-123856051D01*
X149300169Y-123985480D01*
X149379097Y-124133145D01*
X149427701Y-124293370D01*
X149444112Y-124460000D01*
X149427701Y-124626630D01*
X149379097Y-124786855D01*
X149300169Y-124934520D01*
X149193949Y-125063949D01*
X149064520Y-125170169D01*
X148916855Y-125249097D01*
X148756630Y-125297701D01*
X148631752Y-125310000D01*
X148548248Y-125310000D01*
X148423370Y-125297701D01*
X148263145Y-125249097D01*
X148115480Y-125170169D01*
X147986051Y-125063949D01*
X147879831Y-124934520D01*
X147800903Y-124786855D01*
X147752299Y-124626630D01*
X147735888Y-124460000D01*
X147752299Y-124293370D01*
X147800903Y-124133145D01*
X147879831Y-123985480D01*
X147986051Y-123856051D01*
X148115480Y-123749831D01*
X148263145Y-123670903D01*
X148423370Y-123622299D01*
X148548248Y-123610000D01*
X148631752Y-123610000D01*
X148756630Y-123622299D01*
X148756630Y-123622299D01*
G37*
G36*
X138596630Y-123622299D02*
X138756855Y-123670903D01*
X138904520Y-123749831D01*
X139033949Y-123856051D01*
X139140169Y-123985480D01*
X139219097Y-124133145D01*
X139267701Y-124293370D01*
X139284112Y-124460000D01*
X139267701Y-124626630D01*
X139219097Y-124786855D01*
X139140169Y-124934520D01*
X139033949Y-125063949D01*
X138904520Y-125170169D01*
X138756855Y-125249097D01*
X138596630Y-125297701D01*
X138471752Y-125310000D01*
X138388248Y-125310000D01*
X138263370Y-125297701D01*
X138103145Y-125249097D01*
X137955480Y-125170169D01*
X137826051Y-125063949D01*
X137719831Y-124934520D01*
X137640903Y-124786855D01*
X137592299Y-124626630D01*
X137575888Y-124460000D01*
X137592299Y-124293370D01*
X137640903Y-124133145D01*
X137719831Y-123985480D01*
X137826051Y-123856051D01*
X137955480Y-123749831D01*
X138103145Y-123670903D01*
X138263370Y-123622299D01*
X138388248Y-123610000D01*
X138471752Y-123610000D01*
X138596630Y-123622299D01*
X138596630Y-123622299D01*
G37*
G36*
X141136630Y-123622299D02*
X141296855Y-123670903D01*
X141444520Y-123749831D01*
X141573949Y-123856051D01*
X141680169Y-123985480D01*
X141759097Y-124133145D01*
X141807701Y-124293370D01*
X141824112Y-124460000D01*
X141807701Y-124626630D01*
X141759097Y-124786855D01*
X141680169Y-124934520D01*
X141573949Y-125063949D01*
X141444520Y-125170169D01*
X141296855Y-125249097D01*
X141136630Y-125297701D01*
X141011752Y-125310000D01*
X140928248Y-125310000D01*
X140803370Y-125297701D01*
X140643145Y-125249097D01*
X140495480Y-125170169D01*
X140366051Y-125063949D01*
X140259831Y-124934520D01*
X140180903Y-124786855D01*
X140132299Y-124626630D01*
X140115888Y-124460000D01*
X140132299Y-124293370D01*
X140180903Y-124133145D01*
X140259831Y-123985480D01*
X140366051Y-123856051D01*
X140495480Y-123749831D01*
X140643145Y-123670903D01*
X140803370Y-123622299D01*
X140928248Y-123610000D01*
X141011752Y-123610000D01*
X141136630Y-123622299D01*
X141136630Y-123622299D01*
G37*
G36*
X146216630Y-123622299D02*
X146376855Y-123670903D01*
X146524520Y-123749831D01*
X146653949Y-123856051D01*
X146760169Y-123985480D01*
X146839097Y-124133145D01*
X146887701Y-124293370D01*
X146904112Y-124460000D01*
X146887701Y-124626630D01*
X146839097Y-124786855D01*
X146760169Y-124934520D01*
X146653949Y-125063949D01*
X146524520Y-125170169D01*
X146376855Y-125249097D01*
X146216630Y-125297701D01*
X146091752Y-125310000D01*
X146008248Y-125310000D01*
X145883370Y-125297701D01*
X145723145Y-125249097D01*
X145575480Y-125170169D01*
X145446051Y-125063949D01*
X145339831Y-124934520D01*
X145260903Y-124786855D01*
X145212299Y-124626630D01*
X145195888Y-124460000D01*
X145212299Y-124293370D01*
X145260903Y-124133145D01*
X145339831Y-123985480D01*
X145446051Y-123856051D01*
X145575480Y-123749831D01*
X145723145Y-123670903D01*
X145883370Y-123622299D01*
X146008248Y-123610000D01*
X146091752Y-123610000D01*
X146216630Y-123622299D01*
X146216630Y-123622299D01*
G37*
G36*
X143676630Y-123622299D02*
X143836855Y-123670903D01*
X143984520Y-123749831D01*
X144113949Y-123856051D01*
X144220169Y-123985480D01*
X144299097Y-124133145D01*
X144347701Y-124293370D01*
X144364112Y-124460000D01*
X144347701Y-124626630D01*
X144299097Y-124786855D01*
X144220169Y-124934520D01*
X144113949Y-125063949D01*
X143984520Y-125170169D01*
X143836855Y-125249097D01*
X143676630Y-125297701D01*
X143551752Y-125310000D01*
X143468248Y-125310000D01*
X143343370Y-125297701D01*
X143183145Y-125249097D01*
X143035480Y-125170169D01*
X142906051Y-125063949D01*
X142799831Y-124934520D01*
X142720903Y-124786855D01*
X142672299Y-124626630D01*
X142655888Y-124460000D01*
X142672299Y-124293370D01*
X142720903Y-124133145D01*
X142799831Y-123985480D01*
X142906051Y-123856051D01*
X143035480Y-123749831D01*
X143183145Y-123670903D01*
X143343370Y-123622299D01*
X143468248Y-123610000D01*
X143551752Y-123610000D01*
X143676630Y-123622299D01*
X143676630Y-123622299D01*
G37*
G36*
X138667112Y-112170565D02*
X138751695Y-112178896D01*
X138834286Y-112203950D01*
X138914488Y-112228279D01*
X139064512Y-112308468D01*
X139196012Y-112416388D01*
X139303932Y-112547888D01*
X139384121Y-112697912D01*
X139384122Y-112697916D01*
X139433504Y-112860705D01*
X139450178Y-113030000D01*
X139433504Y-113199295D01*
X139396971Y-113319727D01*
X139384121Y-113362088D01*
X139303932Y-113512112D01*
X139196012Y-113643612D01*
X139064512Y-113751532D01*
X138914488Y-113831721D01*
X138872127Y-113844571D01*
X138751695Y-113881104D01*
X138667112Y-113889435D01*
X138624821Y-113893600D01*
X138235179Y-113893600D01*
X138192888Y-113889435D01*
X138108305Y-113881104D01*
X137987873Y-113844571D01*
X137945512Y-113831721D01*
X137795488Y-113751532D01*
X137663988Y-113643612D01*
X137556068Y-113512112D01*
X137475879Y-113362088D01*
X137463029Y-113319727D01*
X137426496Y-113199295D01*
X137409822Y-113030000D01*
X137426496Y-112860705D01*
X137475878Y-112697916D01*
X137475879Y-112697912D01*
X137556068Y-112547888D01*
X137663988Y-112416388D01*
X137795488Y-112308468D01*
X137945512Y-112228279D01*
X138025714Y-112203950D01*
X138108305Y-112178896D01*
X138192888Y-112170565D01*
X138235179Y-112166400D01*
X138624821Y-112166400D01*
X138667112Y-112170565D01*
X138667112Y-112170565D01*
G37*
G36*
X153907112Y-112170565D02*
X153991695Y-112178896D01*
X154074286Y-112203950D01*
X154154488Y-112228279D01*
X154304512Y-112308468D01*
X154436012Y-112416388D01*
X154543932Y-112547888D01*
X154624121Y-112697912D01*
X154624122Y-112697916D01*
X154673504Y-112860705D01*
X154690178Y-113030000D01*
X154673504Y-113199295D01*
X154636971Y-113319727D01*
X154624121Y-113362088D01*
X154543932Y-113512112D01*
X154436012Y-113643612D01*
X154304512Y-113751532D01*
X154154488Y-113831721D01*
X154112127Y-113844571D01*
X153991695Y-113881104D01*
X153907112Y-113889435D01*
X153864821Y-113893600D01*
X153475179Y-113893600D01*
X153432888Y-113889435D01*
X153348305Y-113881104D01*
X153227873Y-113844571D01*
X153185512Y-113831721D01*
X153035488Y-113751532D01*
X152903988Y-113643612D01*
X152796068Y-113512112D01*
X152715879Y-113362088D01*
X152703029Y-113319727D01*
X152666496Y-113199295D01*
X152649822Y-113030000D01*
X152666496Y-112860705D01*
X152715878Y-112697916D01*
X152715879Y-112697912D01*
X152796068Y-112547888D01*
X152903988Y-112416388D01*
X153035488Y-112308468D01*
X153185512Y-112228279D01*
X153265714Y-112203950D01*
X153348305Y-112178896D01*
X153432888Y-112170565D01*
X153475179Y-112166400D01*
X153864821Y-112166400D01*
X153907112Y-112170565D01*
X153907112Y-112170565D01*
G37*
G36*
X125310000Y-112610000D02*
X123610000Y-112610000D01*
X123610000Y-110910000D01*
X125310000Y-110910000D01*
X125310000Y-112610000D01*
X125310000Y-112610000D01*
G37*
G36*
X169331632Y-110762300D02*
X169491857Y-110810904D01*
X169639522Y-110889832D01*
X169768951Y-110996052D01*
X169875171Y-111125481D01*
X169954099Y-111273146D01*
X170002703Y-111433371D01*
X170019114Y-111600001D01*
X170002703Y-111766631D01*
X169954099Y-111926856D01*
X169875171Y-112074521D01*
X169768951Y-112203950D01*
X169639522Y-112310170D01*
X169491857Y-112389098D01*
X169331632Y-112437702D01*
X169206754Y-112450001D01*
X169123250Y-112450001D01*
X168998372Y-112437702D01*
X168838147Y-112389098D01*
X168690482Y-112310170D01*
X168561053Y-112203950D01*
X168454833Y-112074521D01*
X168375905Y-111926856D01*
X168327301Y-111766631D01*
X168310890Y-111600001D01*
X168327301Y-111433371D01*
X168375905Y-111273146D01*
X168454833Y-111125481D01*
X168561053Y-110996052D01*
X168690482Y-110889832D01*
X168838147Y-110810904D01*
X168998372Y-110762300D01*
X169123250Y-110750001D01*
X169206754Y-110750001D01*
X169331632Y-110762300D01*
X169331632Y-110762300D01*
G37*
G36*
X138667112Y-109630565D02*
X138751695Y-109638896D01*
X138834286Y-109663950D01*
X138914488Y-109688279D01*
X139064512Y-109768468D01*
X139196012Y-109876388D01*
X139303932Y-110007888D01*
X139384121Y-110157912D01*
X139384122Y-110157916D01*
X139433504Y-110320705D01*
X139450178Y-110490000D01*
X139433504Y-110659295D01*
X139405988Y-110750001D01*
X139384121Y-110822088D01*
X139303932Y-110972112D01*
X139196012Y-111103612D01*
X139064512Y-111211532D01*
X138914488Y-111291721D01*
X138872127Y-111304571D01*
X138751695Y-111341104D01*
X138667112Y-111349435D01*
X138624821Y-111353600D01*
X138235179Y-111353600D01*
X138192888Y-111349435D01*
X138108305Y-111341104D01*
X137987873Y-111304571D01*
X137945512Y-111291721D01*
X137795488Y-111211532D01*
X137663988Y-111103612D01*
X137556068Y-110972112D01*
X137475879Y-110822088D01*
X137454012Y-110750001D01*
X137426496Y-110659295D01*
X137409822Y-110490000D01*
X137426496Y-110320705D01*
X137475878Y-110157916D01*
X137475879Y-110157912D01*
X137556068Y-110007888D01*
X137663988Y-109876388D01*
X137795488Y-109768468D01*
X137945512Y-109688279D01*
X138025714Y-109663950D01*
X138108305Y-109638896D01*
X138192888Y-109630565D01*
X138235179Y-109626400D01*
X138624821Y-109626400D01*
X138667112Y-109630565D01*
X138667112Y-109630565D01*
G37*
G36*
X153907112Y-109630565D02*
X153991695Y-109638896D01*
X154074286Y-109663950D01*
X154154488Y-109688279D01*
X154304512Y-109768468D01*
X154436012Y-109876388D01*
X154543932Y-110007888D01*
X154624121Y-110157912D01*
X154624122Y-110157916D01*
X154673504Y-110320705D01*
X154690178Y-110490000D01*
X154673504Y-110659295D01*
X154645988Y-110750001D01*
X154624121Y-110822088D01*
X154543932Y-110972112D01*
X154436012Y-111103612D01*
X154304512Y-111211532D01*
X154154488Y-111291721D01*
X154112127Y-111304571D01*
X153991695Y-111341104D01*
X153907112Y-111349435D01*
X153864821Y-111353600D01*
X153475179Y-111353600D01*
X153432888Y-111349435D01*
X153348305Y-111341104D01*
X153227873Y-111304571D01*
X153185512Y-111291721D01*
X153035488Y-111211532D01*
X152903988Y-111103612D01*
X152796068Y-110972112D01*
X152715879Y-110822088D01*
X152694012Y-110750001D01*
X152666496Y-110659295D01*
X152649822Y-110490000D01*
X152666496Y-110320705D01*
X152715878Y-110157916D01*
X152715879Y-110157912D01*
X152796068Y-110007888D01*
X152903988Y-109876388D01*
X153035488Y-109768468D01*
X153185512Y-109688279D01*
X153265714Y-109663950D01*
X153348305Y-109638896D01*
X153432888Y-109630565D01*
X153475179Y-109626400D01*
X153864821Y-109626400D01*
X153907112Y-109630565D01*
X153907112Y-109630565D01*
G37*
G36*
X130628354Y-108690744D02*
X130773943Y-108751049D01*
X130904975Y-108838602D01*
X131016401Y-108950028D01*
X131103954Y-109081060D01*
X131164259Y-109226649D01*
X131195002Y-109381206D01*
X131195002Y-109538796D01*
X131164259Y-109693353D01*
X131103954Y-109838942D01*
X131016401Y-109969974D01*
X130904975Y-110081400D01*
X130773943Y-110168953D01*
X130628354Y-110229258D01*
X130473797Y-110260001D01*
X130316207Y-110260001D01*
X130161650Y-110229258D01*
X130016061Y-110168953D01*
X129885029Y-110081400D01*
X129773603Y-109969974D01*
X129686050Y-109838942D01*
X129625745Y-109693353D01*
X129595002Y-109538796D01*
X129595002Y-109381206D01*
X129625745Y-109226649D01*
X129686050Y-109081060D01*
X129773603Y-108950028D01*
X129885029Y-108838602D01*
X130016061Y-108751049D01*
X130161650Y-108690744D01*
X130316207Y-108660001D01*
X130473797Y-108660001D01*
X130628354Y-108690744D01*
X130628354Y-108690744D01*
G37*
G36*
X124626630Y-108382299D02*
X124786855Y-108430903D01*
X124934520Y-108509831D01*
X125063949Y-108616051D01*
X125170169Y-108745480D01*
X125249097Y-108893145D01*
X125297701Y-109053370D01*
X125314112Y-109220000D01*
X125297701Y-109386630D01*
X125249097Y-109546855D01*
X125170169Y-109694520D01*
X125063949Y-109823949D01*
X124934520Y-109930169D01*
X124786855Y-110009097D01*
X124626630Y-110057701D01*
X124501752Y-110070000D01*
X124418248Y-110070000D01*
X124293370Y-110057701D01*
X124133145Y-110009097D01*
X123985480Y-109930169D01*
X123856051Y-109823949D01*
X123749831Y-109694520D01*
X123670903Y-109546855D01*
X123622299Y-109386630D01*
X123605888Y-109220000D01*
X123622299Y-109053370D01*
X123670903Y-108893145D01*
X123749831Y-108745480D01*
X123856051Y-108616051D01*
X123985480Y-108509831D01*
X124133145Y-108430903D01*
X124293370Y-108382299D01*
X124418248Y-108370000D01*
X124501752Y-108370000D01*
X124626630Y-108382299D01*
X124626630Y-108382299D01*
G37*
G36*
X169331632Y-108222300D02*
X169491857Y-108270904D01*
X169639522Y-108349832D01*
X169768951Y-108456052D01*
X169875171Y-108585481D01*
X169954099Y-108733146D01*
X170002703Y-108893371D01*
X170019114Y-109060001D01*
X170002703Y-109226631D01*
X169954099Y-109386856D01*
X169875171Y-109534521D01*
X169768951Y-109663950D01*
X169639522Y-109770170D01*
X169491857Y-109849098D01*
X169331632Y-109897702D01*
X169206754Y-109910001D01*
X169123250Y-109910001D01*
X168998372Y-109897702D01*
X168838147Y-109849098D01*
X168690482Y-109770170D01*
X168561053Y-109663950D01*
X168454833Y-109534521D01*
X168375905Y-109386856D01*
X168327301Y-109226631D01*
X168310890Y-109060001D01*
X168327301Y-108893371D01*
X168375905Y-108733146D01*
X168454833Y-108585481D01*
X168561053Y-108456052D01*
X168690482Y-108349832D01*
X168838147Y-108270904D01*
X168998372Y-108222300D01*
X169123250Y-108210001D01*
X169206754Y-108210001D01*
X169331632Y-108222300D01*
X169331632Y-108222300D01*
G37*
G36*
X153907112Y-107090565D02*
X153991695Y-107098896D01*
X154074286Y-107123950D01*
X154154488Y-107148279D01*
X154304512Y-107228468D01*
X154436012Y-107336388D01*
X154543932Y-107467888D01*
X154624121Y-107617912D01*
X154624122Y-107617916D01*
X154673504Y-107780705D01*
X154690178Y-107950000D01*
X154673504Y-108119295D01*
X154645988Y-108210001D01*
X154624121Y-108282088D01*
X154543932Y-108432112D01*
X154436012Y-108563612D01*
X154304512Y-108671532D01*
X154154488Y-108751721D01*
X154112127Y-108764571D01*
X153991695Y-108801104D01*
X153907112Y-108809435D01*
X153864821Y-108813600D01*
X153475179Y-108813600D01*
X153432888Y-108809435D01*
X153348305Y-108801104D01*
X153227873Y-108764571D01*
X153185512Y-108751721D01*
X153035488Y-108671532D01*
X152903988Y-108563612D01*
X152796068Y-108432112D01*
X152715879Y-108282088D01*
X152694012Y-108210001D01*
X152666496Y-108119295D01*
X152649822Y-107950000D01*
X152666496Y-107780705D01*
X152715878Y-107617916D01*
X152715879Y-107617912D01*
X152796068Y-107467888D01*
X152903988Y-107336388D01*
X153035488Y-107228468D01*
X153185512Y-107148279D01*
X153265714Y-107123950D01*
X153348305Y-107098896D01*
X153432888Y-107090565D01*
X153475179Y-107086400D01*
X153864821Y-107086400D01*
X153907112Y-107090565D01*
X153907112Y-107090565D01*
G37*
G36*
X138667112Y-107090565D02*
X138751695Y-107098896D01*
X138834286Y-107123950D01*
X138914488Y-107148279D01*
X139064512Y-107228468D01*
X139196012Y-107336388D01*
X139303932Y-107467888D01*
X139384121Y-107617912D01*
X139384122Y-107617916D01*
X139433504Y-107780705D01*
X139450178Y-107950000D01*
X139433504Y-108119295D01*
X139405988Y-108210001D01*
X139384121Y-108282088D01*
X139303932Y-108432112D01*
X139196012Y-108563612D01*
X139064512Y-108671532D01*
X138914488Y-108751721D01*
X138872127Y-108764571D01*
X138751695Y-108801104D01*
X138667112Y-108809435D01*
X138624821Y-108813600D01*
X138235179Y-108813600D01*
X138192888Y-108809435D01*
X138108305Y-108801104D01*
X137987873Y-108764571D01*
X137945512Y-108751721D01*
X137795488Y-108671532D01*
X137663988Y-108563612D01*
X137556068Y-108432112D01*
X137475879Y-108282088D01*
X137454012Y-108210001D01*
X137426496Y-108119295D01*
X137409822Y-107950000D01*
X137426496Y-107780705D01*
X137475878Y-107617916D01*
X137475879Y-107617912D01*
X137556068Y-107467888D01*
X137663988Y-107336388D01*
X137795488Y-107228468D01*
X137945512Y-107148279D01*
X138025714Y-107123950D01*
X138108305Y-107098896D01*
X138192888Y-107090565D01*
X138235179Y-107086400D01*
X138624821Y-107086400D01*
X138667112Y-107090565D01*
X138667112Y-107090565D01*
G37*
G36*
X130628354Y-106150744D02*
X130773943Y-106211049D01*
X130904975Y-106298602D01*
X131016401Y-106410028D01*
X131103954Y-106541060D01*
X131164259Y-106686649D01*
X131195002Y-106841206D01*
X131195002Y-106998796D01*
X131164259Y-107153353D01*
X131103954Y-107298942D01*
X131016401Y-107429974D01*
X130904975Y-107541400D01*
X130773943Y-107628953D01*
X130628354Y-107689258D01*
X130473797Y-107720001D01*
X130316207Y-107720001D01*
X130161650Y-107689258D01*
X130016061Y-107628953D01*
X129885029Y-107541400D01*
X129773603Y-107429974D01*
X129686050Y-107298942D01*
X129625745Y-107153353D01*
X129595002Y-106998796D01*
X129595002Y-106841206D01*
X129625745Y-106686649D01*
X129686050Y-106541060D01*
X129773603Y-106410028D01*
X129885029Y-106298602D01*
X130016061Y-106211049D01*
X130161650Y-106150744D01*
X130316207Y-106120001D01*
X130473797Y-106120001D01*
X130628354Y-106150744D01*
X130628354Y-106150744D01*
G37*
G36*
X151389312Y-105825164D02*
X151551098Y-105892178D01*
X151696707Y-105989471D01*
X151820529Y-106113293D01*
X151917822Y-106258902D01*
X151984836Y-106420688D01*
X152019000Y-106592441D01*
X152019000Y-106767559D01*
X151984836Y-106939312D01*
X151917822Y-107101098D01*
X151820529Y-107246707D01*
X151696707Y-107370529D01*
X151551098Y-107467822D01*
X151389312Y-107534836D01*
X151217559Y-107569000D01*
X151042441Y-107569000D01*
X150870688Y-107534836D01*
X150708902Y-107467822D01*
X150563293Y-107370529D01*
X150439471Y-107246707D01*
X150342178Y-107101098D01*
X150275164Y-106939312D01*
X150241000Y-106767559D01*
X150241000Y-106592441D01*
X150275164Y-106420688D01*
X150342178Y-106258902D01*
X150439471Y-106113293D01*
X150563293Y-105989471D01*
X150708902Y-105892178D01*
X150870688Y-105825164D01*
X151042441Y-105791000D01*
X151217559Y-105791000D01*
X151389312Y-105825164D01*
X151389312Y-105825164D01*
G37*
G36*
X124626630Y-105842299D02*
X124786855Y-105890903D01*
X124934520Y-105969831D01*
X125063949Y-106076051D01*
X125170169Y-106205480D01*
X125249097Y-106353145D01*
X125297701Y-106513370D01*
X125314112Y-106680000D01*
X125297701Y-106846630D01*
X125249097Y-107006855D01*
X125170169Y-107154520D01*
X125063949Y-107283949D01*
X124934520Y-107390169D01*
X124786855Y-107469097D01*
X124626630Y-107517701D01*
X124501752Y-107530000D01*
X124418248Y-107530000D01*
X124293370Y-107517701D01*
X124133145Y-107469097D01*
X123985480Y-107390169D01*
X123856051Y-107283949D01*
X123749831Y-107154520D01*
X123670903Y-107006855D01*
X123622299Y-106846630D01*
X123605888Y-106680000D01*
X123622299Y-106513370D01*
X123670903Y-106353145D01*
X123749831Y-106205480D01*
X123856051Y-106076051D01*
X123985480Y-105969831D01*
X124133145Y-105890903D01*
X124293370Y-105842299D01*
X124418248Y-105830000D01*
X124501752Y-105830000D01*
X124626630Y-105842299D01*
X124626630Y-105842299D01*
G37*
G36*
X169331632Y-105682300D02*
X169491857Y-105730904D01*
X169639522Y-105809832D01*
X169768951Y-105916052D01*
X169875171Y-106045481D01*
X169954099Y-106193146D01*
X170002703Y-106353371D01*
X170019114Y-106520001D01*
X170002703Y-106686631D01*
X169954099Y-106846856D01*
X169875171Y-106994521D01*
X169768951Y-107123950D01*
X169639522Y-107230170D01*
X169491857Y-107309098D01*
X169331632Y-107357702D01*
X169206754Y-107370001D01*
X169123250Y-107370001D01*
X168998372Y-107357702D01*
X168838147Y-107309098D01*
X168690482Y-107230170D01*
X168561053Y-107123950D01*
X168454833Y-106994521D01*
X168375905Y-106846856D01*
X168327301Y-106686631D01*
X168310890Y-106520001D01*
X168327301Y-106353371D01*
X168375905Y-106193146D01*
X168454833Y-106045481D01*
X168561053Y-105916052D01*
X168690482Y-105809832D01*
X168838147Y-105730904D01*
X168998372Y-105682300D01*
X169123250Y-105670001D01*
X169206754Y-105670001D01*
X169331632Y-105682300D01*
X169331632Y-105682300D01*
G37*
G36*
X153907112Y-104550565D02*
X153991695Y-104558896D01*
X154074286Y-104583950D01*
X154154488Y-104608279D01*
X154304512Y-104688468D01*
X154436012Y-104796388D01*
X154543932Y-104927888D01*
X154624121Y-105077912D01*
X154624122Y-105077916D01*
X154673504Y-105240705D01*
X154690178Y-105410000D01*
X154673504Y-105579295D01*
X154645988Y-105670001D01*
X154624121Y-105742088D01*
X154543932Y-105892112D01*
X154436012Y-106023612D01*
X154304512Y-106131532D01*
X154154488Y-106211721D01*
X154112127Y-106224571D01*
X153991695Y-106261104D01*
X153907112Y-106269435D01*
X153864821Y-106273600D01*
X153475179Y-106273600D01*
X153432888Y-106269435D01*
X153348305Y-106261104D01*
X153227873Y-106224571D01*
X153185512Y-106211721D01*
X153035488Y-106131532D01*
X152903988Y-106023612D01*
X152796068Y-105892112D01*
X152715879Y-105742088D01*
X152694012Y-105670001D01*
X152666496Y-105579295D01*
X152649822Y-105410000D01*
X152666496Y-105240705D01*
X152715878Y-105077916D01*
X152715879Y-105077912D01*
X152796068Y-104927888D01*
X152903988Y-104796388D01*
X153035488Y-104688468D01*
X153185512Y-104608279D01*
X153265714Y-104583950D01*
X153348305Y-104558896D01*
X153432888Y-104550565D01*
X153475179Y-104546400D01*
X153864821Y-104546400D01*
X153907112Y-104550565D01*
X153907112Y-104550565D01*
G37*
G36*
X138667112Y-104550565D02*
X138751695Y-104558896D01*
X138834286Y-104583950D01*
X138914488Y-104608279D01*
X139064512Y-104688468D01*
X139196012Y-104796388D01*
X139303932Y-104927888D01*
X139384121Y-105077912D01*
X139384122Y-105077916D01*
X139433504Y-105240705D01*
X139450178Y-105410000D01*
X139433504Y-105579295D01*
X139405988Y-105670001D01*
X139384121Y-105742088D01*
X139303932Y-105892112D01*
X139196012Y-106023612D01*
X139064512Y-106131532D01*
X138914488Y-106211721D01*
X138872127Y-106224571D01*
X138751695Y-106261104D01*
X138667112Y-106269435D01*
X138624821Y-106273600D01*
X138235179Y-106273600D01*
X138192888Y-106269435D01*
X138108305Y-106261104D01*
X137987873Y-106224571D01*
X137945512Y-106211721D01*
X137795488Y-106131532D01*
X137663988Y-106023612D01*
X137556068Y-105892112D01*
X137475879Y-105742088D01*
X137454012Y-105670001D01*
X137426496Y-105579295D01*
X137409822Y-105410000D01*
X137426496Y-105240705D01*
X137475878Y-105077916D01*
X137475879Y-105077912D01*
X137556068Y-104927888D01*
X137663988Y-104796388D01*
X137795488Y-104688468D01*
X137945512Y-104608279D01*
X138025714Y-104583950D01*
X138108305Y-104558896D01*
X138192888Y-104550565D01*
X138235179Y-104546400D01*
X138624821Y-104546400D01*
X138667112Y-104550565D01*
X138667112Y-104550565D01*
G37*
G36*
X151389312Y-103285164D02*
X151551098Y-103352178D01*
X151696707Y-103449471D01*
X151820529Y-103573293D01*
X151917822Y-103718902D01*
X151984836Y-103880688D01*
X152019000Y-104052441D01*
X152019000Y-104227559D01*
X151984836Y-104399312D01*
X151917822Y-104561098D01*
X151820529Y-104706707D01*
X151696707Y-104830529D01*
X151551098Y-104927822D01*
X151389312Y-104994836D01*
X151217559Y-105029000D01*
X151042441Y-105029000D01*
X150870688Y-104994836D01*
X150708902Y-104927822D01*
X150563293Y-104830529D01*
X150439471Y-104706707D01*
X150342178Y-104561098D01*
X150275164Y-104399312D01*
X150241000Y-104227559D01*
X150241000Y-104052441D01*
X150275164Y-103880688D01*
X150342178Y-103718902D01*
X150439471Y-103573293D01*
X150563293Y-103449471D01*
X150708902Y-103352178D01*
X150870688Y-103285164D01*
X151042441Y-103251000D01*
X151217559Y-103251000D01*
X151389312Y-103285164D01*
X151389312Y-103285164D01*
G37*
G36*
X169331632Y-103142300D02*
X169491857Y-103190904D01*
X169639522Y-103269832D01*
X169768951Y-103376052D01*
X169875171Y-103505481D01*
X169954099Y-103653146D01*
X170002703Y-103813371D01*
X170019114Y-103980001D01*
X170002703Y-104146631D01*
X169954099Y-104306856D01*
X169875171Y-104454521D01*
X169768951Y-104583950D01*
X169639522Y-104690170D01*
X169491857Y-104769098D01*
X169331632Y-104817702D01*
X169206754Y-104830001D01*
X169123250Y-104830001D01*
X168998372Y-104817702D01*
X168838147Y-104769098D01*
X168690482Y-104690170D01*
X168561053Y-104583950D01*
X168454833Y-104454521D01*
X168375905Y-104306856D01*
X168327301Y-104146631D01*
X168310890Y-103980001D01*
X168327301Y-103813371D01*
X168375905Y-103653146D01*
X168454833Y-103505481D01*
X168561053Y-103376052D01*
X168690482Y-103269832D01*
X168838147Y-103190904D01*
X168998372Y-103142300D01*
X169123250Y-103130001D01*
X169206754Y-103130001D01*
X169331632Y-103142300D01*
X169331632Y-103142300D01*
G37*
G36*
X153907112Y-102010565D02*
X153991695Y-102018896D01*
X154074286Y-102043950D01*
X154154488Y-102068279D01*
X154304512Y-102148468D01*
X154436012Y-102256388D01*
X154543932Y-102387888D01*
X154624121Y-102537912D01*
X154624122Y-102537916D01*
X154673504Y-102700705D01*
X154690178Y-102870000D01*
X154673504Y-103039295D01*
X154645988Y-103130001D01*
X154624121Y-103202088D01*
X154543932Y-103352112D01*
X154436012Y-103483612D01*
X154304512Y-103591532D01*
X154154488Y-103671721D01*
X154112127Y-103684571D01*
X153991695Y-103721104D01*
X153907112Y-103729435D01*
X153864821Y-103733600D01*
X153475179Y-103733600D01*
X153432888Y-103729435D01*
X153348305Y-103721104D01*
X153227873Y-103684571D01*
X153185512Y-103671721D01*
X153035488Y-103591532D01*
X152903988Y-103483612D01*
X152796068Y-103352112D01*
X152715879Y-103202088D01*
X152694012Y-103130001D01*
X152666496Y-103039295D01*
X152649822Y-102870000D01*
X152666496Y-102700705D01*
X152715878Y-102537916D01*
X152715879Y-102537912D01*
X152796068Y-102387888D01*
X152903988Y-102256388D01*
X153035488Y-102148468D01*
X153185512Y-102068279D01*
X153265714Y-102043950D01*
X153348305Y-102018896D01*
X153432888Y-102010565D01*
X153475179Y-102006400D01*
X153864821Y-102006400D01*
X153907112Y-102010565D01*
X153907112Y-102010565D01*
G37*
G36*
X138667112Y-102010565D02*
X138751695Y-102018896D01*
X138834286Y-102043950D01*
X138914488Y-102068279D01*
X139064512Y-102148468D01*
X139196012Y-102256388D01*
X139303932Y-102387888D01*
X139384121Y-102537912D01*
X139384122Y-102537916D01*
X139433504Y-102700705D01*
X139450178Y-102870000D01*
X139433504Y-103039295D01*
X139405988Y-103130001D01*
X139384121Y-103202088D01*
X139303932Y-103352112D01*
X139196012Y-103483612D01*
X139064512Y-103591532D01*
X138914488Y-103671721D01*
X138872127Y-103684571D01*
X138751695Y-103721104D01*
X138667112Y-103729435D01*
X138624821Y-103733600D01*
X138235179Y-103733600D01*
X138192888Y-103729435D01*
X138108305Y-103721104D01*
X137987873Y-103684571D01*
X137945512Y-103671721D01*
X137795488Y-103591532D01*
X137663988Y-103483612D01*
X137556068Y-103352112D01*
X137475879Y-103202088D01*
X137454012Y-103130001D01*
X137426496Y-103039295D01*
X137409822Y-102870000D01*
X137426496Y-102700705D01*
X137475878Y-102537916D01*
X137475879Y-102537912D01*
X137556068Y-102387888D01*
X137663988Y-102256388D01*
X137795488Y-102148468D01*
X137945512Y-102068279D01*
X138025714Y-102043950D01*
X138108305Y-102018896D01*
X138192888Y-102010565D01*
X138235179Y-102006400D01*
X138624821Y-102006400D01*
X138667112Y-102010565D01*
X138667112Y-102010565D01*
G37*
G36*
X169331632Y-100602300D02*
X169491857Y-100650904D01*
X169639522Y-100729832D01*
X169768951Y-100836052D01*
X169875171Y-100965481D01*
X169954099Y-101113146D01*
X170002703Y-101273371D01*
X170019114Y-101440001D01*
X170002703Y-101606631D01*
X169954099Y-101766856D01*
X169875171Y-101914521D01*
X169768951Y-102043950D01*
X169639522Y-102150170D01*
X169491857Y-102229098D01*
X169331632Y-102277702D01*
X169206754Y-102290001D01*
X169123250Y-102290001D01*
X168998372Y-102277702D01*
X168838147Y-102229098D01*
X168690482Y-102150170D01*
X168561053Y-102043950D01*
X168454833Y-101914521D01*
X168375905Y-101766856D01*
X168327301Y-101606631D01*
X168310890Y-101440001D01*
X168327301Y-101273371D01*
X168375905Y-101113146D01*
X168454833Y-100965481D01*
X168561053Y-100836052D01*
X168690482Y-100729832D01*
X168838147Y-100650904D01*
X168998372Y-100602300D01*
X169123250Y-100590001D01*
X169206754Y-100590001D01*
X169331632Y-100602300D01*
X169331632Y-100602300D01*
G37*
G36*
X138667112Y-99470565D02*
X138751695Y-99478896D01*
X138834286Y-99503950D01*
X138914488Y-99528279D01*
X139064512Y-99608468D01*
X139196012Y-99716388D01*
X139303932Y-99847888D01*
X139384121Y-99997912D01*
X139384122Y-99997916D01*
X139433504Y-100160705D01*
X139450178Y-100330000D01*
X139433504Y-100499295D01*
X139405988Y-100590001D01*
X139384121Y-100662088D01*
X139303932Y-100812112D01*
X139196012Y-100943612D01*
X139064512Y-101051532D01*
X138914488Y-101131721D01*
X138872127Y-101144571D01*
X138751695Y-101181104D01*
X138667112Y-101189435D01*
X138624821Y-101193600D01*
X138235179Y-101193600D01*
X138192888Y-101189435D01*
X138108305Y-101181104D01*
X137987873Y-101144571D01*
X137945512Y-101131721D01*
X137795488Y-101051532D01*
X137663988Y-100943612D01*
X137556068Y-100812112D01*
X137475879Y-100662088D01*
X137454012Y-100590001D01*
X137426496Y-100499295D01*
X137409822Y-100330000D01*
X137426496Y-100160705D01*
X137475878Y-99997916D01*
X137475879Y-99997912D01*
X137556068Y-99847888D01*
X137663988Y-99716388D01*
X137795488Y-99608468D01*
X137945512Y-99528279D01*
X138025714Y-99503950D01*
X138108305Y-99478896D01*
X138192888Y-99470565D01*
X138235179Y-99466400D01*
X138624821Y-99466400D01*
X138667112Y-99470565D01*
X138667112Y-99470565D01*
G37*
G36*
X153907112Y-99470565D02*
X153991695Y-99478896D01*
X154074286Y-99503950D01*
X154154488Y-99528279D01*
X154304512Y-99608468D01*
X154436012Y-99716388D01*
X154543932Y-99847888D01*
X154624121Y-99997912D01*
X154624122Y-99997916D01*
X154673504Y-100160705D01*
X154690178Y-100330000D01*
X154673504Y-100499295D01*
X154645988Y-100590001D01*
X154624121Y-100662088D01*
X154543932Y-100812112D01*
X154436012Y-100943612D01*
X154304512Y-101051532D01*
X154154488Y-101131721D01*
X154112127Y-101144571D01*
X153991695Y-101181104D01*
X153907112Y-101189435D01*
X153864821Y-101193600D01*
X153475179Y-101193600D01*
X153432888Y-101189435D01*
X153348305Y-101181104D01*
X153227873Y-101144571D01*
X153185512Y-101131721D01*
X153035488Y-101051532D01*
X152903988Y-100943612D01*
X152796068Y-100812112D01*
X152715879Y-100662088D01*
X152694012Y-100590001D01*
X152666496Y-100499295D01*
X152649822Y-100330000D01*
X152666496Y-100160705D01*
X152715878Y-99997916D01*
X152715879Y-99997912D01*
X152796068Y-99847888D01*
X152903988Y-99716388D01*
X153035488Y-99608468D01*
X153185512Y-99528279D01*
X153265714Y-99503950D01*
X153348305Y-99478896D01*
X153432888Y-99470565D01*
X153475179Y-99466400D01*
X153864821Y-99466400D01*
X153907112Y-99470565D01*
X153907112Y-99470565D01*
G37*
G36*
X169331632Y-98062300D02*
X169491857Y-98110904D01*
X169639522Y-98189832D01*
X169768951Y-98296052D01*
X169875171Y-98425481D01*
X169954099Y-98573146D01*
X170002703Y-98733371D01*
X170019114Y-98900001D01*
X170002703Y-99066631D01*
X169954099Y-99226856D01*
X169875171Y-99374521D01*
X169768951Y-99503950D01*
X169639522Y-99610170D01*
X169491857Y-99689098D01*
X169331632Y-99737702D01*
X169206754Y-99750001D01*
X169123250Y-99750001D01*
X168998372Y-99737702D01*
X168838147Y-99689098D01*
X168690482Y-99610170D01*
X168561053Y-99503950D01*
X168454833Y-99374521D01*
X168375905Y-99226856D01*
X168327301Y-99066631D01*
X168310890Y-98900001D01*
X168327301Y-98733371D01*
X168375905Y-98573146D01*
X168454833Y-98425481D01*
X168561053Y-98296052D01*
X168690482Y-98189832D01*
X168838147Y-98110904D01*
X168998372Y-98062300D01*
X169123250Y-98050001D01*
X169206754Y-98050001D01*
X169331632Y-98062300D01*
X169331632Y-98062300D01*
G37*
G36*
X153907112Y-96930565D02*
X153991695Y-96938896D01*
X154074286Y-96963950D01*
X154154488Y-96988279D01*
X154304512Y-97068468D01*
X154436012Y-97176388D01*
X154543932Y-97307888D01*
X154624121Y-97457912D01*
X154624122Y-97457916D01*
X154673504Y-97620705D01*
X154690178Y-97790000D01*
X154673504Y-97959295D01*
X154645988Y-98050001D01*
X154624121Y-98122088D01*
X154543932Y-98272112D01*
X154436012Y-98403612D01*
X154304512Y-98511532D01*
X154154488Y-98591721D01*
X154112127Y-98604571D01*
X153991695Y-98641104D01*
X153907112Y-98649435D01*
X153864821Y-98653600D01*
X153475179Y-98653600D01*
X153432888Y-98649435D01*
X153348305Y-98641104D01*
X153227873Y-98604571D01*
X153185512Y-98591721D01*
X153035488Y-98511532D01*
X152903988Y-98403612D01*
X152796068Y-98272112D01*
X152715879Y-98122088D01*
X152694012Y-98050001D01*
X152666496Y-97959295D01*
X152649822Y-97790000D01*
X152666496Y-97620705D01*
X152715878Y-97457916D01*
X152715879Y-97457912D01*
X152796068Y-97307888D01*
X152903988Y-97176388D01*
X153035488Y-97068468D01*
X153185512Y-96988279D01*
X153265714Y-96963950D01*
X153348305Y-96938896D01*
X153432888Y-96930565D01*
X153475179Y-96926400D01*
X153864821Y-96926400D01*
X153907112Y-96930565D01*
X153907112Y-96930565D01*
G37*
G36*
X138667112Y-96930565D02*
X138751695Y-96938896D01*
X138834286Y-96963950D01*
X138914488Y-96988279D01*
X139064512Y-97068468D01*
X139196012Y-97176388D01*
X139303932Y-97307888D01*
X139384121Y-97457912D01*
X139384122Y-97457916D01*
X139433504Y-97620705D01*
X139450178Y-97790000D01*
X139433504Y-97959295D01*
X139405988Y-98050001D01*
X139384121Y-98122088D01*
X139303932Y-98272112D01*
X139196012Y-98403612D01*
X139064512Y-98511532D01*
X138914488Y-98591721D01*
X138872127Y-98604571D01*
X138751695Y-98641104D01*
X138667112Y-98649435D01*
X138624821Y-98653600D01*
X138235179Y-98653600D01*
X138192888Y-98649435D01*
X138108305Y-98641104D01*
X137987873Y-98604571D01*
X137945512Y-98591721D01*
X137795488Y-98511532D01*
X137663988Y-98403612D01*
X137556068Y-98272112D01*
X137475879Y-98122088D01*
X137454012Y-98050001D01*
X137426496Y-97959295D01*
X137409822Y-97790000D01*
X137426496Y-97620705D01*
X137475878Y-97457916D01*
X137475879Y-97457912D01*
X137556068Y-97307888D01*
X137663988Y-97176388D01*
X137795488Y-97068468D01*
X137945512Y-96988279D01*
X138025714Y-96963950D01*
X138108305Y-96938896D01*
X138192888Y-96930565D01*
X138235179Y-96926400D01*
X138624821Y-96926400D01*
X138667112Y-96930565D01*
X138667112Y-96930565D01*
G37*
G36*
X151389312Y-95665164D02*
X151551098Y-95732178D01*
X151696707Y-95829471D01*
X151820529Y-95953293D01*
X151917822Y-96098902D01*
X151984836Y-96260688D01*
X152019000Y-96432441D01*
X152019000Y-96607559D01*
X151984836Y-96779312D01*
X151917822Y-96941098D01*
X151820529Y-97086707D01*
X151696707Y-97210529D01*
X151551098Y-97307822D01*
X151389312Y-97374836D01*
X151217559Y-97409000D01*
X151042441Y-97409000D01*
X150870688Y-97374836D01*
X150708902Y-97307822D01*
X150563293Y-97210529D01*
X150439471Y-97086707D01*
X150342178Y-96941098D01*
X150275164Y-96779312D01*
X150241000Y-96607559D01*
X150241000Y-96432441D01*
X150275164Y-96260688D01*
X150342178Y-96098902D01*
X150439471Y-95953293D01*
X150563293Y-95829471D01*
X150708902Y-95732178D01*
X150870688Y-95665164D01*
X151042441Y-95631000D01*
X151217559Y-95631000D01*
X151389312Y-95665164D01*
X151389312Y-95665164D01*
G37*
G36*
X169331632Y-95522300D02*
X169491857Y-95570904D01*
X169639522Y-95649832D01*
X169768951Y-95756052D01*
X169875171Y-95885481D01*
X169954099Y-96033146D01*
X170002703Y-96193371D01*
X170019114Y-96360001D01*
X170002703Y-96526631D01*
X169954099Y-96686856D01*
X169875171Y-96834521D01*
X169768951Y-96963950D01*
X169639522Y-97070170D01*
X169491857Y-97149098D01*
X169331632Y-97197702D01*
X169206754Y-97210001D01*
X169123250Y-97210001D01*
X168998372Y-97197702D01*
X168838147Y-97149098D01*
X168690482Y-97070170D01*
X168561053Y-96963950D01*
X168454833Y-96834521D01*
X168375905Y-96686856D01*
X168327301Y-96526631D01*
X168310890Y-96360001D01*
X168327301Y-96193371D01*
X168375905Y-96033146D01*
X168454833Y-95885481D01*
X168561053Y-95756052D01*
X168690482Y-95649832D01*
X168838147Y-95570904D01*
X168998372Y-95522300D01*
X169123250Y-95510001D01*
X169206754Y-95510001D01*
X169331632Y-95522300D01*
X169331632Y-95522300D01*
G37*
G36*
X138667112Y-94390565D02*
X138751695Y-94398896D01*
X138872127Y-94435429D01*
X138914488Y-94448279D01*
X139064512Y-94528468D01*
X139196012Y-94636388D01*
X139303932Y-94767888D01*
X139384121Y-94917912D01*
X139384122Y-94917916D01*
X139433504Y-95080705D01*
X139450178Y-95250000D01*
X139433504Y-95419295D01*
X139405988Y-95510001D01*
X139384121Y-95582088D01*
X139303932Y-95732112D01*
X139196012Y-95863612D01*
X139064512Y-95971532D01*
X138914488Y-96051721D01*
X138872127Y-96064571D01*
X138751695Y-96101104D01*
X138667112Y-96109435D01*
X138624821Y-96113600D01*
X138235179Y-96113600D01*
X138192888Y-96109435D01*
X138108305Y-96101104D01*
X137987873Y-96064571D01*
X137945512Y-96051721D01*
X137795488Y-95971532D01*
X137663988Y-95863612D01*
X137556068Y-95732112D01*
X137475879Y-95582088D01*
X137454012Y-95510001D01*
X137426496Y-95419295D01*
X137409822Y-95250000D01*
X137426496Y-95080705D01*
X137475878Y-94917916D01*
X137475879Y-94917912D01*
X137556068Y-94767888D01*
X137663988Y-94636388D01*
X137795488Y-94528468D01*
X137945512Y-94448279D01*
X137987873Y-94435429D01*
X138108305Y-94398896D01*
X138192888Y-94390565D01*
X138235179Y-94386400D01*
X138624821Y-94386400D01*
X138667112Y-94390565D01*
X138667112Y-94390565D01*
G37*
G36*
X153907112Y-94390565D02*
X153991695Y-94398896D01*
X154112127Y-94435429D01*
X154154488Y-94448279D01*
X154304512Y-94528468D01*
X154436012Y-94636388D01*
X154543932Y-94767888D01*
X154624121Y-94917912D01*
X154624122Y-94917916D01*
X154673504Y-95080705D01*
X154690178Y-95250000D01*
X154673504Y-95419295D01*
X154645988Y-95510001D01*
X154624121Y-95582088D01*
X154543932Y-95732112D01*
X154436012Y-95863612D01*
X154304512Y-95971532D01*
X154154488Y-96051721D01*
X154112127Y-96064571D01*
X153991695Y-96101104D01*
X153907112Y-96109435D01*
X153864821Y-96113600D01*
X153475179Y-96113600D01*
X153432888Y-96109435D01*
X153348305Y-96101104D01*
X153227873Y-96064571D01*
X153185512Y-96051721D01*
X153035488Y-95971532D01*
X152903988Y-95863612D01*
X152796068Y-95732112D01*
X152715879Y-95582088D01*
X152694012Y-95510001D01*
X152666496Y-95419295D01*
X152649822Y-95250000D01*
X152666496Y-95080705D01*
X152715878Y-94917916D01*
X152715879Y-94917912D01*
X152796068Y-94767888D01*
X152903988Y-94636388D01*
X153035488Y-94528468D01*
X153185512Y-94448279D01*
X153227873Y-94435429D01*
X153348305Y-94398896D01*
X153432888Y-94390565D01*
X153475179Y-94386400D01*
X153864821Y-94386400D01*
X153907112Y-94390565D01*
X153907112Y-94390565D01*
G37*
G36*
X151389312Y-93125164D02*
X151551098Y-93192178D01*
X151696707Y-93289471D01*
X151820529Y-93413293D01*
X151917822Y-93558902D01*
X151984836Y-93720688D01*
X152019000Y-93892441D01*
X152019000Y-94067559D01*
X151984836Y-94239312D01*
X151917822Y-94401098D01*
X151820529Y-94546707D01*
X151696707Y-94670529D01*
X151551098Y-94767822D01*
X151389312Y-94834836D01*
X151217559Y-94869000D01*
X151042441Y-94869000D01*
X150870688Y-94834836D01*
X150708902Y-94767822D01*
X150563293Y-94670529D01*
X150439471Y-94546707D01*
X150342178Y-94401098D01*
X150275164Y-94239312D01*
X150241000Y-94067559D01*
X150241000Y-93892441D01*
X150275164Y-93720688D01*
X150342178Y-93558902D01*
X150439471Y-93413293D01*
X150563293Y-93289471D01*
X150708902Y-93192178D01*
X150870688Y-93125164D01*
X151042441Y-93091000D01*
X151217559Y-93091000D01*
X151389312Y-93125164D01*
X151389312Y-93125164D01*
G37*
G36*
X170015002Y-94670001D02*
X168315002Y-94670001D01*
X168315002Y-92970001D01*
X170015002Y-92970001D01*
X170015002Y-94670001D01*
X170015002Y-94670001D01*
G37*
G36*
X153907112Y-91850565D02*
X153991695Y-91858896D01*
X154112127Y-91895429D01*
X154154488Y-91908279D01*
X154304512Y-91988468D01*
X154436012Y-92096388D01*
X154543932Y-92227888D01*
X154624121Y-92377912D01*
X154624122Y-92377916D01*
X154673504Y-92540705D01*
X154690178Y-92710000D01*
X154673504Y-92879295D01*
X154645988Y-92970001D01*
X154624121Y-93042088D01*
X154543932Y-93192112D01*
X154436012Y-93323612D01*
X154304512Y-93431532D01*
X154154488Y-93511721D01*
X154112127Y-93524571D01*
X153991695Y-93561104D01*
X153907112Y-93569435D01*
X153864821Y-93573600D01*
X153475179Y-93573600D01*
X153432888Y-93569435D01*
X153348305Y-93561104D01*
X153227873Y-93524571D01*
X153185512Y-93511721D01*
X153035488Y-93431532D01*
X152903988Y-93323612D01*
X152796068Y-93192112D01*
X152715879Y-93042088D01*
X152694012Y-92970001D01*
X152666496Y-92879295D01*
X152649822Y-92710000D01*
X152666496Y-92540705D01*
X152715878Y-92377916D01*
X152715879Y-92377912D01*
X152796068Y-92227888D01*
X152903988Y-92096388D01*
X153035488Y-91988468D01*
X153185512Y-91908279D01*
X153227873Y-91895429D01*
X153348305Y-91858896D01*
X153432888Y-91850565D01*
X153475179Y-91846400D01*
X153864821Y-91846400D01*
X153907112Y-91850565D01*
X153907112Y-91850565D01*
G37*
G36*
X138667112Y-91850565D02*
X138751695Y-91858896D01*
X138872127Y-91895429D01*
X138914488Y-91908279D01*
X139064512Y-91988468D01*
X139196012Y-92096388D01*
X139303932Y-92227888D01*
X139384121Y-92377912D01*
X139384122Y-92377916D01*
X139433504Y-92540705D01*
X139450178Y-92710000D01*
X139433504Y-92879295D01*
X139405988Y-92970001D01*
X139384121Y-93042088D01*
X139303932Y-93192112D01*
X139196012Y-93323612D01*
X139064512Y-93431532D01*
X138914488Y-93511721D01*
X138872127Y-93524571D01*
X138751695Y-93561104D01*
X138667112Y-93569435D01*
X138624821Y-93573600D01*
X138235179Y-93573600D01*
X138192888Y-93569435D01*
X138108305Y-93561104D01*
X137987873Y-93524571D01*
X137945512Y-93511721D01*
X137795488Y-93431532D01*
X137663988Y-93323612D01*
X137556068Y-93192112D01*
X137475879Y-93042088D01*
X137454012Y-92970001D01*
X137426496Y-92879295D01*
X137409822Y-92710000D01*
X137426496Y-92540705D01*
X137475878Y-92377916D01*
X137475879Y-92377912D01*
X137556068Y-92227888D01*
X137663988Y-92096388D01*
X137795488Y-91988468D01*
X137945512Y-91908279D01*
X137987873Y-91895429D01*
X138108305Y-91858896D01*
X138192888Y-91850565D01*
X138235179Y-91846400D01*
X138624821Y-91846400D01*
X138667112Y-91850565D01*
X138667112Y-91850565D01*
G37*
G36*
X153907112Y-89310565D02*
X153991695Y-89318896D01*
X154112127Y-89355429D01*
X154154488Y-89368279D01*
X154304512Y-89448468D01*
X154436012Y-89556388D01*
X154543932Y-89687888D01*
X154624121Y-89837912D01*
X154624122Y-89837916D01*
X154673504Y-90000705D01*
X154690178Y-90170000D01*
X154673504Y-90339295D01*
X154636971Y-90459727D01*
X154624121Y-90502088D01*
X154543932Y-90652112D01*
X154436012Y-90783612D01*
X154304512Y-90891532D01*
X154154488Y-90971721D01*
X154112127Y-90984571D01*
X153991695Y-91021104D01*
X153907112Y-91029435D01*
X153864821Y-91033600D01*
X153475179Y-91033600D01*
X153432888Y-91029435D01*
X153348305Y-91021104D01*
X153227873Y-90984571D01*
X153185512Y-90971721D01*
X153035488Y-90891532D01*
X152903988Y-90783612D01*
X152796068Y-90652112D01*
X152715879Y-90502088D01*
X152703029Y-90459727D01*
X152666496Y-90339295D01*
X152649822Y-90170000D01*
X152666496Y-90000705D01*
X152715878Y-89837916D01*
X152715879Y-89837912D01*
X152796068Y-89687888D01*
X152903988Y-89556388D01*
X153035488Y-89448468D01*
X153185512Y-89368279D01*
X153227873Y-89355429D01*
X153348305Y-89318896D01*
X153432888Y-89310565D01*
X153475179Y-89306400D01*
X153864821Y-89306400D01*
X153907112Y-89310565D01*
X153907112Y-89310565D01*
G37*
G36*
X138667112Y-89310565D02*
X138751695Y-89318896D01*
X138872127Y-89355429D01*
X138914488Y-89368279D01*
X139064512Y-89448468D01*
X139196012Y-89556388D01*
X139303932Y-89687888D01*
X139384121Y-89837912D01*
X139384122Y-89837916D01*
X139433504Y-90000705D01*
X139450178Y-90170000D01*
X139433504Y-90339295D01*
X139396971Y-90459727D01*
X139384121Y-90502088D01*
X139303932Y-90652112D01*
X139196012Y-90783612D01*
X139064512Y-90891532D01*
X138914488Y-90971721D01*
X138872127Y-90984571D01*
X138751695Y-91021104D01*
X138667112Y-91029435D01*
X138624821Y-91033600D01*
X138235179Y-91033600D01*
X138192888Y-91029435D01*
X138108305Y-91021104D01*
X137987873Y-90984571D01*
X137945512Y-90971721D01*
X137795488Y-90891532D01*
X137663988Y-90783612D01*
X137556068Y-90652112D01*
X137475879Y-90502088D01*
X137463029Y-90459727D01*
X137426496Y-90339295D01*
X137409822Y-90170000D01*
X137426496Y-90000705D01*
X137475878Y-89837916D01*
X137475879Y-89837912D01*
X137556068Y-89687888D01*
X137663988Y-89556388D01*
X137795488Y-89448468D01*
X137945512Y-89368279D01*
X137987873Y-89355429D01*
X138108305Y-89318896D01*
X138192888Y-89310565D01*
X138235179Y-89306400D01*
X138624821Y-89306400D01*
X138667112Y-89310565D01*
X138667112Y-89310565D01*
G37*
G36*
X138667112Y-86770565D02*
X138751695Y-86778896D01*
X138872127Y-86815429D01*
X138914488Y-86828279D01*
X139064512Y-86908468D01*
X139196012Y-87016388D01*
X139303932Y-87147888D01*
X139384121Y-87297912D01*
X139384122Y-87297916D01*
X139433504Y-87460705D01*
X139450178Y-87630000D01*
X139433504Y-87799295D01*
X139396971Y-87919727D01*
X139384121Y-87962088D01*
X139303932Y-88112112D01*
X139196012Y-88243612D01*
X139064512Y-88351532D01*
X138914488Y-88431721D01*
X138872127Y-88444571D01*
X138751695Y-88481104D01*
X138667112Y-88489435D01*
X138624821Y-88493600D01*
X138235179Y-88493600D01*
X138192888Y-88489435D01*
X138108305Y-88481104D01*
X137987873Y-88444571D01*
X137945512Y-88431721D01*
X137795488Y-88351532D01*
X137663988Y-88243612D01*
X137556068Y-88112112D01*
X137475879Y-87962088D01*
X137463029Y-87919727D01*
X137426496Y-87799295D01*
X137409822Y-87630000D01*
X137426496Y-87460705D01*
X137475878Y-87297916D01*
X137475879Y-87297912D01*
X137556068Y-87147888D01*
X137663988Y-87016388D01*
X137795488Y-86908468D01*
X137945512Y-86828279D01*
X137987873Y-86815429D01*
X138108305Y-86778896D01*
X138192888Y-86770565D01*
X138235179Y-86766400D01*
X138624821Y-86766400D01*
X138667112Y-86770565D01*
X138667112Y-86770565D01*
G37*
G36*
X153907112Y-86770565D02*
X153991695Y-86778896D01*
X154112127Y-86815429D01*
X154154488Y-86828279D01*
X154304512Y-86908468D01*
X154436012Y-87016388D01*
X154543932Y-87147888D01*
X154624121Y-87297912D01*
X154624122Y-87297916D01*
X154673504Y-87460705D01*
X154690178Y-87630000D01*
X154673504Y-87799295D01*
X154636971Y-87919727D01*
X154624121Y-87962088D01*
X154543932Y-88112112D01*
X154436012Y-88243612D01*
X154304512Y-88351532D01*
X154154488Y-88431721D01*
X154112127Y-88444571D01*
X153991695Y-88481104D01*
X153907112Y-88489435D01*
X153864821Y-88493600D01*
X153475179Y-88493600D01*
X153432888Y-88489435D01*
X153348305Y-88481104D01*
X153227873Y-88444571D01*
X153185512Y-88431721D01*
X153035488Y-88351532D01*
X152903988Y-88243612D01*
X152796068Y-88112112D01*
X152715879Y-87962088D01*
X152703029Y-87919727D01*
X152666496Y-87799295D01*
X152649822Y-87630000D01*
X152666496Y-87460705D01*
X152715878Y-87297916D01*
X152715879Y-87297912D01*
X152796068Y-87147888D01*
X152903988Y-87016388D01*
X153035488Y-86908468D01*
X153185512Y-86828279D01*
X153227873Y-86815429D01*
X153348305Y-86778896D01*
X153432888Y-86770565D01*
X153475179Y-86766400D01*
X153864821Y-86766400D01*
X153907112Y-86770565D01*
X153907112Y-86770565D01*
G37*
G36*
X138667112Y-84230565D02*
X138751695Y-84238896D01*
X138872127Y-84275429D01*
X138914488Y-84288279D01*
X139064512Y-84368468D01*
X139196012Y-84476388D01*
X139303932Y-84607888D01*
X139384121Y-84757912D01*
X139384122Y-84757916D01*
X139433504Y-84920705D01*
X139450178Y-85090000D01*
X139433504Y-85259295D01*
X139396971Y-85379727D01*
X139384121Y-85422088D01*
X139303932Y-85572112D01*
X139196012Y-85703612D01*
X139064512Y-85811532D01*
X138914488Y-85891721D01*
X138872127Y-85904571D01*
X138751695Y-85941104D01*
X138667112Y-85949435D01*
X138624821Y-85953600D01*
X138235179Y-85953600D01*
X138192888Y-85949435D01*
X138108305Y-85941104D01*
X137987873Y-85904571D01*
X137945512Y-85891721D01*
X137795488Y-85811532D01*
X137663988Y-85703612D01*
X137556068Y-85572112D01*
X137475879Y-85422088D01*
X137463029Y-85379727D01*
X137426496Y-85259295D01*
X137409822Y-85090000D01*
X137426496Y-84920705D01*
X137475878Y-84757916D01*
X137475879Y-84757912D01*
X137556068Y-84607888D01*
X137663988Y-84476388D01*
X137795488Y-84368468D01*
X137945512Y-84288279D01*
X137987873Y-84275429D01*
X138108305Y-84238896D01*
X138192888Y-84230565D01*
X138235179Y-84226400D01*
X138624821Y-84226400D01*
X138667112Y-84230565D01*
X138667112Y-84230565D01*
G37*
G36*
X153907112Y-84230565D02*
X153991695Y-84238896D01*
X154112127Y-84275429D01*
X154154488Y-84288279D01*
X154304512Y-84368468D01*
X154436012Y-84476388D01*
X154543932Y-84607888D01*
X154624121Y-84757912D01*
X154624122Y-84757916D01*
X154673504Y-84920705D01*
X154690178Y-85090000D01*
X154673504Y-85259295D01*
X154636971Y-85379727D01*
X154624121Y-85422088D01*
X154543932Y-85572112D01*
X154436012Y-85703612D01*
X154304512Y-85811532D01*
X154154488Y-85891721D01*
X154112127Y-85904571D01*
X153991695Y-85941104D01*
X153907112Y-85949435D01*
X153864821Y-85953600D01*
X153475179Y-85953600D01*
X153432888Y-85949435D01*
X153348305Y-85941104D01*
X153227873Y-85904571D01*
X153185512Y-85891721D01*
X153035488Y-85811532D01*
X152903988Y-85703612D01*
X152796068Y-85572112D01*
X152715879Y-85422088D01*
X152703029Y-85379727D01*
X152666496Y-85259295D01*
X152649822Y-85090000D01*
X152666496Y-84920705D01*
X152715878Y-84757916D01*
X152715879Y-84757912D01*
X152796068Y-84607888D01*
X152903988Y-84476388D01*
X153035488Y-84368468D01*
X153185512Y-84288279D01*
X153227873Y-84275429D01*
X153348305Y-84238896D01*
X153432888Y-84230565D01*
X153475179Y-84226400D01*
X153864821Y-84226400D01*
X153907112Y-84230565D01*
X153907112Y-84230565D01*
G37*
G36*
X152569294Y-81546496D02*
X152689726Y-81583029D01*
X152732087Y-81595879D01*
X152882112Y-81676068D01*
X153013612Y-81783988D01*
X153121532Y-81915488D01*
X153201721Y-82065512D01*
X153214571Y-82107873D01*
X153251104Y-82228305D01*
X153263600Y-82355180D01*
X153263600Y-82744819D01*
X153251104Y-82871694D01*
X153214571Y-82992128D01*
X153201721Y-83034488D01*
X153121532Y-83184512D01*
X153013612Y-83316012D01*
X152882112Y-83423932D01*
X152732088Y-83504121D01*
X152689727Y-83516971D01*
X152569295Y-83553504D01*
X152456432Y-83564620D01*
X152400001Y-83570178D01*
X152400000Y-83570178D01*
X152230706Y-83553504D01*
X152110274Y-83516971D01*
X152067913Y-83504121D01*
X151917889Y-83423932D01*
X151827946Y-83350117D01*
X151786388Y-83316012D01*
X151678469Y-83184512D01*
X151678467Y-83184509D01*
X151598279Y-83034488D01*
X151585429Y-82992127D01*
X151548896Y-82871695D01*
X151536400Y-82744820D01*
X151536400Y-82355181D01*
X151548896Y-82228306D01*
X151598278Y-82065517D01*
X151598279Y-82065513D01*
X151678468Y-81915488D01*
X151786388Y-81783988D01*
X151917888Y-81676068D01*
X152067912Y-81595879D01*
X152110273Y-81583029D01*
X152230705Y-81546496D01*
X152343568Y-81535380D01*
X152399999Y-81529822D01*
X152400000Y-81529822D01*
X152569294Y-81546496D01*
X152569294Y-81546496D01*
G37*
G36*
X150029294Y-81546496D02*
X150149726Y-81583029D01*
X150192087Y-81595879D01*
X150342112Y-81676068D01*
X150473612Y-81783988D01*
X150581532Y-81915488D01*
X150661721Y-82065512D01*
X150674571Y-82107873D01*
X150711104Y-82228305D01*
X150723600Y-82355180D01*
X150723600Y-82744819D01*
X150711104Y-82871694D01*
X150674571Y-82992128D01*
X150661721Y-83034488D01*
X150581532Y-83184512D01*
X150473612Y-83316012D01*
X150342112Y-83423932D01*
X150192088Y-83504121D01*
X150149727Y-83516971D01*
X150029295Y-83553504D01*
X149916432Y-83564620D01*
X149860001Y-83570178D01*
X149860000Y-83570178D01*
X149690706Y-83553504D01*
X149570274Y-83516971D01*
X149527913Y-83504121D01*
X149377889Y-83423932D01*
X149287946Y-83350117D01*
X149246388Y-83316012D01*
X149138469Y-83184512D01*
X149138467Y-83184509D01*
X149058279Y-83034488D01*
X149045429Y-82992127D01*
X149008896Y-82871695D01*
X148996400Y-82744820D01*
X148996400Y-82355181D01*
X149008896Y-82228306D01*
X149058278Y-82065517D01*
X149058279Y-82065513D01*
X149138468Y-81915488D01*
X149246388Y-81783988D01*
X149377888Y-81676068D01*
X149527912Y-81595879D01*
X149570273Y-81583029D01*
X149690705Y-81546496D01*
X149803568Y-81535380D01*
X149859999Y-81529822D01*
X149860000Y-81529822D01*
X150029294Y-81546496D01*
X150029294Y-81546496D01*
G37*
G36*
X139869294Y-81546496D02*
X139989726Y-81583029D01*
X140032087Y-81595879D01*
X140182112Y-81676068D01*
X140313612Y-81783988D01*
X140421532Y-81915488D01*
X140501721Y-82065512D01*
X140514571Y-82107873D01*
X140551104Y-82228305D01*
X140563600Y-82355180D01*
X140563600Y-82744819D01*
X140551104Y-82871694D01*
X140514571Y-82992128D01*
X140501721Y-83034488D01*
X140421532Y-83184512D01*
X140313612Y-83316012D01*
X140182112Y-83423932D01*
X140032088Y-83504121D01*
X139989727Y-83516971D01*
X139869295Y-83553504D01*
X139756432Y-83564620D01*
X139700001Y-83570178D01*
X139700000Y-83570178D01*
X139530706Y-83553504D01*
X139410274Y-83516971D01*
X139367913Y-83504121D01*
X139217889Y-83423932D01*
X139127946Y-83350117D01*
X139086388Y-83316012D01*
X138978469Y-83184512D01*
X138978467Y-83184509D01*
X138898279Y-83034488D01*
X138885429Y-82992127D01*
X138848896Y-82871695D01*
X138836400Y-82744820D01*
X138836400Y-82355181D01*
X138848896Y-82228306D01*
X138898278Y-82065517D01*
X138898279Y-82065513D01*
X138978468Y-81915488D01*
X139086388Y-81783988D01*
X139217888Y-81676068D01*
X139367912Y-81595879D01*
X139410273Y-81583029D01*
X139530705Y-81546496D01*
X139643568Y-81535380D01*
X139699999Y-81529822D01*
X139700000Y-81529822D01*
X139869294Y-81546496D01*
X139869294Y-81546496D01*
G37*
G36*
X142409294Y-81546496D02*
X142529726Y-81583029D01*
X142572087Y-81595879D01*
X142722112Y-81676068D01*
X142853612Y-81783988D01*
X142961532Y-81915488D01*
X143041721Y-82065512D01*
X143054571Y-82107873D01*
X143091104Y-82228305D01*
X143103600Y-82355180D01*
X143103600Y-82744819D01*
X143091104Y-82871694D01*
X143054571Y-82992128D01*
X143041721Y-83034488D01*
X142961532Y-83184512D01*
X142853612Y-83316012D01*
X142722112Y-83423932D01*
X142572088Y-83504121D01*
X142529727Y-83516971D01*
X142409295Y-83553504D01*
X142296432Y-83564620D01*
X142240001Y-83570178D01*
X142240000Y-83570178D01*
X142070706Y-83553504D01*
X141950274Y-83516971D01*
X141907913Y-83504121D01*
X141757889Y-83423932D01*
X141667946Y-83350117D01*
X141626388Y-83316012D01*
X141518469Y-83184512D01*
X141518467Y-83184509D01*
X141438279Y-83034488D01*
X141425429Y-82992127D01*
X141388896Y-82871695D01*
X141376400Y-82744820D01*
X141376400Y-82355181D01*
X141388896Y-82228306D01*
X141438278Y-82065517D01*
X141438279Y-82065513D01*
X141518468Y-81915488D01*
X141626388Y-81783988D01*
X141757888Y-81676068D01*
X141907912Y-81595879D01*
X141950273Y-81583029D01*
X142070705Y-81546496D01*
X142183568Y-81535380D01*
X142239999Y-81529822D01*
X142240000Y-81529822D01*
X142409294Y-81546496D01*
X142409294Y-81546496D01*
G37*
G36*
X144949294Y-81546496D02*
X145069726Y-81583029D01*
X145112087Y-81595879D01*
X145262112Y-81676068D01*
X145393612Y-81783988D01*
X145501532Y-81915488D01*
X145581721Y-82065512D01*
X145594571Y-82107873D01*
X145631104Y-82228305D01*
X145643600Y-82355180D01*
X145643600Y-82744819D01*
X145631104Y-82871694D01*
X145594571Y-82992128D01*
X145581721Y-83034488D01*
X145501532Y-83184512D01*
X145393612Y-83316012D01*
X145262112Y-83423932D01*
X145112088Y-83504121D01*
X145069727Y-83516971D01*
X144949295Y-83553504D01*
X144836432Y-83564620D01*
X144780001Y-83570178D01*
X144780000Y-83570178D01*
X144610706Y-83553504D01*
X144490274Y-83516971D01*
X144447913Y-83504121D01*
X144297889Y-83423932D01*
X144207946Y-83350117D01*
X144166388Y-83316012D01*
X144058469Y-83184512D01*
X144058467Y-83184509D01*
X143978279Y-83034488D01*
X143965429Y-82992127D01*
X143928896Y-82871695D01*
X143916400Y-82744820D01*
X143916400Y-82355181D01*
X143928896Y-82228306D01*
X143978278Y-82065517D01*
X143978279Y-82065513D01*
X144058468Y-81915488D01*
X144166388Y-81783988D01*
X144297888Y-81676068D01*
X144447912Y-81595879D01*
X144490273Y-81583029D01*
X144610705Y-81546496D01*
X144723568Y-81535380D01*
X144779999Y-81529822D01*
X144780000Y-81529822D01*
X144949294Y-81546496D01*
X144949294Y-81546496D01*
G37*
G36*
X147489294Y-81546496D02*
X147609726Y-81583029D01*
X147652087Y-81595879D01*
X147802112Y-81676068D01*
X147933612Y-81783988D01*
X148041532Y-81915488D01*
X148121721Y-82065512D01*
X148134571Y-82107873D01*
X148171104Y-82228305D01*
X148183600Y-82355180D01*
X148183600Y-82744819D01*
X148171104Y-82871694D01*
X148134571Y-82992128D01*
X148121721Y-83034488D01*
X148041532Y-83184512D01*
X147933612Y-83316012D01*
X147802112Y-83423932D01*
X147652088Y-83504121D01*
X147609727Y-83516971D01*
X147489295Y-83553504D01*
X147376432Y-83564620D01*
X147320001Y-83570178D01*
X147320000Y-83570178D01*
X147150706Y-83553504D01*
X147030274Y-83516971D01*
X146987913Y-83504121D01*
X146837889Y-83423932D01*
X146747946Y-83350117D01*
X146706388Y-83316012D01*
X146598469Y-83184512D01*
X146598467Y-83184509D01*
X146518279Y-83034488D01*
X146505429Y-82992127D01*
X146468896Y-82871695D01*
X146456400Y-82744820D01*
X146456400Y-82355181D01*
X146468896Y-82228306D01*
X146518278Y-82065517D01*
X146518279Y-82065513D01*
X146598468Y-81915488D01*
X146706388Y-81783988D01*
X146837888Y-81676068D01*
X146987912Y-81595879D01*
X147030273Y-81583029D01*
X147150705Y-81546496D01*
X147263568Y-81535380D01*
X147319999Y-81529822D01*
X147320000Y-81529822D01*
X147489294Y-81546496D01*
X147489294Y-81546496D01*
G37*
G36*
X147326631Y-65267297D02*
X147486856Y-65315901D01*
X147634521Y-65394829D01*
X147763950Y-65501049D01*
X147870170Y-65630478D01*
X147949098Y-65778143D01*
X147997702Y-65938368D01*
X148014113Y-66104998D01*
X147997702Y-66271628D01*
X147949098Y-66431853D01*
X147870170Y-66579518D01*
X147763950Y-66708947D01*
X147634521Y-66815167D01*
X147486856Y-66894095D01*
X147326631Y-66942699D01*
X147201753Y-66954998D01*
X147118249Y-66954998D01*
X146993371Y-66942699D01*
X146833146Y-66894095D01*
X146685481Y-66815167D01*
X146556052Y-66708947D01*
X146449832Y-66579518D01*
X146370904Y-66431853D01*
X146322300Y-66271628D01*
X146305889Y-66104998D01*
X146322300Y-65938368D01*
X146370904Y-65778143D01*
X146449832Y-65630478D01*
X146556052Y-65501049D01*
X146685481Y-65394829D01*
X146833146Y-65315901D01*
X146993371Y-65267297D01*
X147118249Y-65254998D01*
X147201753Y-65254998D01*
X147326631Y-65267297D01*
X147326631Y-65267297D01*
G37*
G36*
X145470001Y-66954998D02*
X143770001Y-66954998D01*
X143770001Y-65254998D01*
X145470001Y-65254998D01*
X145470001Y-66954998D01*
X145470001Y-66954998D01*
G37*
M02*
