M48
;DRILL file {KiCad 5.0.2+dfsg1-1~bpo9+1} date Mon 25 Mar 2019 15:43:52 CET
;FORMAT={-:-/ absolute / metric / decimal}
FMAT,2
METRIC,TZ
T1C0.800
T2C1.000
T3C1.016
%
G90
G05
T1
X130.395Y-106.92
X130.395Y-109.46
T2
X169.165Y-93.82
X169.165Y-96.36
X169.165Y-98.9
X169.165Y-101.44
X169.165Y-103.98
X169.165Y-106.52
X169.165Y-109.06
X169.165Y-111.6
X144.62Y-66.105
X147.16Y-66.105
X124.46Y-106.68
X124.46Y-109.22
X124.46Y-111.76
X138.43Y-124.46
X140.97Y-124.46
X143.51Y-124.46
X146.05Y-124.46
X148.59Y-124.46
X151.13Y-124.46
T3
X139.7Y-82.55
X142.24Y-82.55
X144.78Y-82.55
X147.32Y-82.55
X149.86Y-82.55
X152.4Y-82.55
X138.43Y-85.09
X138.43Y-87.63
X138.43Y-90.17
X138.43Y-92.71
X138.43Y-95.25
X138.43Y-97.79
X138.43Y-100.33
X138.43Y-102.87
X138.43Y-105.41
X138.43Y-107.95
X138.43Y-110.49
X138.43Y-113.03
X151.13Y-104.14
X151.13Y-106.68
X151.13Y-93.98
X151.13Y-96.52
X153.67Y-85.09
X153.67Y-87.63
X153.67Y-90.17
X153.67Y-92.71
X153.67Y-95.25
X153.67Y-97.79
X153.67Y-100.33
X153.67Y-102.87
X153.67Y-105.41
X153.67Y-107.95
X153.67Y-110.49
X153.67Y-113.03
T0
M30
